<?xml version="1.0" standalone="no"?>
<!DOCTYPE svg PUBLIC "-//W3C//DTD SVG 1.1//EN" "http://www.w3.org/Graphics/SVG/1.1/DTD/svg11.dtd" >
<svg>
<metadata>
Created by FontForge 20090622 at Mon May 11 17:20:43 2015
 By deploy user
EeveSomepx
</metadata>
<defs>
<font id="Zool" horiz-adv-x="512" >
  <font-face 
    font-family="Zool"
    font-weight="500"
    font-stretch="normal"
    units-per-em="1024"
    panose-1="2 0 6 3 0 0 0 0 0 0"
    ascent="768"
    descent="-256"
    x-height="448"
    cap-height="448"
    bbox="0 -192 512 682"
    underline-thickness="51"
    underline-position="-103"
    unicode-range="U+0020-U+00A0"
  />
<missing-glyph horiz-adv-x="374" 
d="M34 0v682h272v-682h-272zM68 34h204v614h-204v-614z" />
    <glyph glyph-name=".notdef" horiz-adv-x="374" 
d="M34 0v682h272v-682h-272zM68 34h204v614h-204v-614z" />
    <glyph glyph-name=".null" horiz-adv-x="0" 
 />
    <glyph glyph-name="nonmarkingreturn" horiz-adv-x="341" 
 />
    <glyph glyph-name="space" unicode=" " horiz-adv-x="320" 
 />
    <glyph glyph-name="exclam" unicode="!" horiz-adv-x="256" 
d="M128 64h64v-64h-64h-64h-64v64h64h64zM128 128h-64h-64v64v64v64v64v64v64v64h64h64h64v-64v-64v-64v-64v-64v-64v-64h-64z" />
    <glyph glyph-name="quotedbl" unicode="&#x22;" horiz-adv-x="384" 
d="M256 128v64h-64h-64v64v64h-64h-64v64v64v64h64h64h64v-64v-64h64h64v-64v-64v-64v-64h-64zM256 256v64h-64v-64h64zM128 384v64h-64v-64h64z" />
    <glyph glyph-name="numbersign" unicode="#" 
d="M384 0h-64h-64v64h-64v-64h-64h-64h-64v64v64v64h64v64h-64v64v64v64h64h64h64v-64h64v64h64h64h64v-64v-64v-64h-64v-64h64v-64v-64v-64h-64zM256 192v64h-64v-64h64z" />
    <glyph glyph-name="dollar" unicode="$" horiz-adv-x="576" 
d="M256 -64h-64v64h-64h-64h-64v64v64h64h64v-64h64v64v64h-64h-64h-64v64v64v64v64h64h64h64v64h64h64v-64h64h64h64v-64v-64h-64h-64v64h-64v-64v-64h64h64h64v-64v-64v-64v-64h-64h-64h-64v-64h-64zM384 64v64v64h-64v-64v-64h64zM192 256v64v64h-64v-64v-64h64z" />
    <glyph glyph-name="percent" unicode="%" horiz-adv-x="384" 
d="M256 64v64h64v-64h-64zM0 320v64h64v-64h-64zM64 64h-64v64v64h64h64v-64v-64h-64zM128 192v64h64v-64h-64zM192 256v64v64h64h64v-64v-64h-64h-64z" />
    <glyph glyph-name="ampersand" unicode="&#x26;" horiz-adv-x="576" 
d="M384 0h-64h-64h-64h-64h-64v64h-64v64v64v64h64v64v64h64v64h64h64h64h64v-64h64v-64v-64h-64h-64v64h-64h-64v-64h64h64v-64h64v-64h64v64h64v-64v-64h-64v-64h-64zM256 64v64h-64v-64h64z" />
    <glyph glyph-name="quotesingle" unicode="'" horiz-adv-x="256" 
d="M128 256v64h-64h-64v64v64v64h64h64h64v-64v-64v-64v-64h-64zM128 384v64h-64v-64h64z" />
    <glyph glyph-name="parenleft" unicode="(" horiz-adv-x="320" 
d="M128 -128v64h64v-64h-64zM192 -64v64h64v-64h-64zM128 -64h-64v64h64v-64zM192 0h-64v64v64v64v64v64v64v64h64v-64v-64v-64v-64v-64v-64v-64zM64 0h-64v64v64v64v64v64v64v64h64v-64v-64v-64v-64v-64v-64v-64zM192 448v64h64v-64h-64zM128 448h-64v64h64v-64zM192 512
h-64v64h64v-64z" />
    <glyph glyph-name="parenright" unicode=")" horiz-adv-x="320" 
d="M64 -128v64h64v-64h-64zM128 -64v64h64v-64h-64zM64 -64h-64v64h64v-64zM192 0v64v64v64v64v64v64v64h64v-64v-64v-64v-64v-64v-64v-64h-64zM128 0h-64v64v64v64v64v64v64v64h64v-64v-64v-64v-64v-64v-64v-64zM192 448h-64v64h64v-64zM64 448h-64v64h64v-64zM128 512h-64
v64h64v-64z" />
    <glyph glyph-name="asterisk" unicode="*" horiz-adv-x="384" 
d="M256 64h-64v64h-64v-64h-64h-64v64v64h64v64h-64v64v64h64h64v-64h64v64h64h64v-64v-64h-64v-64h64v-64v-64h-64z" />
    <glyph glyph-name="plus" unicode="+" 
d="M256 64h-64h-64v64h-64h-64v64v64v64h64h64v64h64h64h64v-64h64h64v-64v-64v-64h-64h-64v-64h-64zM320 192h64v64h-64h-64v64h-64v-64h-64h-64v-64h64h64v-64h64v64h64z" />
    <glyph glyph-name="comma" unicode="," horiz-adv-x="256" 
d="M0 -64v64v64v64v64h64h64h64v-64v-64v-64h-64h-64v-64h-64zM128 64v64h-64v-64h64z" />
    <glyph glyph-name="hyphen" unicode="-" 
d="M384 128h-64h-64h-64h-64h-64h-64v64v64v64h64h64h64h64h64h64h64v-64v-64v-64h-64zM320 192h64v64h-64h-64h-64h-64h-64v-64h64h64h64h64z" />
    <glyph glyph-name="period" unicode="." horiz-adv-x="256" 
d="M128 0h-64h-64v64v64v64h64h64h64v-64v-64v-64h-64zM128 64v64h-64v-64h64z" />
    <glyph glyph-name="slash" unicode="/" 
d="M64 0h-64v64v64h64h64v-64v-64h-64zM128 128v64h64v-64h-64zM192 192v64h64v-64h-64zM256 256v64h64v-64h-64zM320 320v64v64h64h64v-64v-64h-64h-64z" />
    <glyph glyph-name="zero" unicode="0" horiz-adv-x="448" 
d="M256 0h-64h-64h-64v64h-64v64v64v64v64v64h64v64h64h64h64h64v-64h64v-64v-64v-64v-64v-64h-64v-64h-64zM192 128v64h64v64v64h-64v-64h-64v-64v-64h64z" />
    <glyph glyph-name="one" unicode="1" horiz-adv-x="448" 
d="M320 0h-64h-64h-64h-64h-64v64h64h64v64v64v64v64h-64h-64v64h64v64h64h64h64h64v-64v-64v-64v-64v-64v-64h64v-64h-64z" />
    <glyph glyph-name="two" unicode="2" horiz-adv-x="448" 
d="M256 0h-64h-64h-64v64h-64v64v64h64v64h64v64h-64h-64v64h64v64h64h64h64h64v-64h64v-64v-64h-64v-64h-64v-64h-64v-64h64v64h64h64v-64h-64v-64h-64zM192 320v64h-64v-64h64z" />
    <glyph glyph-name="three" unicode="3" horiz-adv-x="448" 
d="M256 0h-64h-64h-64v64h-64v64h64h64v64h-64v64h64v64h-64h-64v64h64v64h64h64h64h64v-64h64v-64v-64h-64v-64h64v-64v-64h-64v-64h-64zM192 64v64h-64v-64h64zM192 320v64h-64v-64h64z" />
    <glyph glyph-name="four" unicode="4" horiz-adv-x="448" 
d="M256 0h-64v64h-64h-64h-64v64v64v64h64v64h64v64h64v64h64h64v-64v-64v-64v-64h64v-64v-64h-64v-64h-64zM192 192v64h-64v-64h64z" />
    <glyph glyph-name="five" unicode="5" horiz-adv-x="448" 
d="M256 0h-64h-64h-64v64h-64v64h64h64v64h-64h-64v64v64v64h64v64h64h64h64h64v-64v-64h-64h-64v-64h64h64v-64h64v-64v-64h-64v-64h-64zM192 64v64h-64v-64h64z" />
    <glyph glyph-name="six" unicode="6" horiz-adv-x="448" 
d="M256 0h-64h-64h-64v64h-64v64v64v64v64v64h64v64h64h64h64h64v-64h64v-64h-64h-64v64h-64v-64v-64h64h64v-64h64v-64v-64h-64v-64h-64zM256 64v64v64h-64v-64v-64h64z" />
    <glyph glyph-name="seven" unicode="7" horiz-adv-x="448" 
d="M320 0h-64h-64v64v64v64v64v64h-64v-64h-64h-64v64v64v64h64h64h64h64h64v-64h64v-64v-64v-64v-64v-64v-64h-64z" />
    <glyph glyph-name="eight" unicode="8" horiz-adv-x="448" 
d="M256 0h-64h-64h-64v64h-64v64v64h64v64h-64v64v64h64v64h64h64h64h64v-64h64v-64v-64h-64v-64h64v-64v-64h-64v-64h-64zM256 64v64v64h-64v-64v-64h64zM256 256v64v64h-64v-64v-64h64z" />
    <glyph glyph-name="nine" unicode="9" horiz-adv-x="448" 
d="M256 0h-64h-64h-64v64h-64v64h64h64v-64h64v64v64h-64h-64v64h-64v64v64h64v64h64h64h64h64v-64h64v-64v-64v-64v-64v-64h-64v-64h-64zM192 256v64v64h-64v-64v-64h64z" />
    <glyph glyph-name="colon" unicode=":" horiz-adv-x="256" 
d="M128 0h-64h-64v64v64v64h64h64h64v-64v-64v-64h-64zM128 64v64h-64v-64h64zM128 256h-64h-64v64v64v64h64h64h64v-64v-64v-64h-64zM128 320v64h-64v-64h64z" />
    <glyph glyph-name="semicolon" unicode=";" horiz-adv-x="256" 
d="M0 -64v64v64v64v64h64h64h64v-64v-64v-64h-64h-64v-64h-64zM128 64v64h-64v-64h64zM128 256h-64h-64v64v64v64h64h64h64v-64v-64v-64h-64zM128 320v64h-64v-64h64z" />
    <glyph glyph-name="less" unicode="&#x3c;" horiz-adv-x="384" 
d="M192 0v64h64v-64h-64zM256 64v64h64v-64h-64zM192 64h-64v64h64v-64zM256 128h-64v64h64v-64zM128 128h-64v64h64v-64zM192 192h-64v64h64v-64zM64 192h-64v64h64v-64zM192 256v64h64v-64h-64zM128 256h-64v64h64v-64zM256 320v64h64v-64h-64zM192 320h-64v64h64v-64z
M256 384h-64v64h64v-64z" />
    <glyph glyph-name="equal" unicode="=" 
d="M384 64h-64h-64h-64h-64h-64h-64v64v64h64h64h64h64h64h64h64v-64v-64h-64zM384 256h-64h-64h-64h-64h-64h-64v64v64h64h64h64h64h64h64h64v-64v-64h-64z" />
    <glyph glyph-name="greater" unicode="&#x3e;" horiz-adv-x="384" 
d="M64 0v64h64v-64h-64zM128 64v64h64v-64h-64zM64 64h-64v64h64v-64zM192 128v64h64v-64h-64zM128 128h-64v64h64v-64zM256 192v64h64v-64h-64zM192 192h-64v64h64v-64zM256 256h-64v64h64v-64zM128 256h-64v64h64v-64zM192 320h-64v64h64v-64zM64 320h-64v64h64v-64z
M128 384h-64v64h64v-64z" />
    <glyph glyph-name="question" unicode="?" 
d="M256 64h64v-64h-64h-64h-64v64h64h64zM256 128h-64h-64v64v64h64v64h64v64h-64h-64v-64h-64h-64v64v64v64h64v64h64h64h64h64h64v-64h64v-64v-64v-64h-64v-64h-64v-64v-64h-64z" />
    <glyph glyph-name="at" unicode="@" horiz-adv-x="576" 
d="M192 -64h-64h-64v64h-64v64v64v64v64v64h64v64h64v64h64h64h64h64h64v-64h64v-64v-64v-64v-64v-64h-64v-64h-64h-64h-64v-64h-64zM320 64v64h-64v-64h64zM192 64v64v64h64v64h64h64v64h-64h-64h-64v-64h-64v-64v-64v-64h64z" />
    <glyph glyph-name="A" unicode="A" 
d="M384 0v64v64v64h-64h-64v-64v-64v-64h-64h-64h-64h-64v64h64v64v64v64v64v64h-64v64h64h64h64h64h64h64h64v-64v-64v-64v-64v-64v-64v-64h-64zM192 64v64v64v64v64v64h-64v-64v-64v-64v-64v-64h64zM320 256h64v64v64h-64h-64v-64v-64h64z" />
    <glyph glyph-name="B" unicode="B" 
d="M384 0h-64h-64h-64h-64h-64h-64v64h64v64v64v64v64v64h-64v64h64h64h64h64h64h64h64v-64v-64v-64h-64v64v64h-64h-64v-64v-64h64h64v-64h-64h-64v-64v-64h64h64v64v64h64v-64v-64v-64h-64zM192 64v64v64v64v64v64h-64v-64v-64v-64v-64v-64h64z" />
    <glyph glyph-name="C" unicode="C" 
d="M384 320v64h-64h-64v-64v-64v-64v-64v-64h64h64v64h64v-64v-64h-64h-64h-64h-64h-64h-64h-64v64h64v64v64v64v64v64h-64v64h64h64h64h64h64h64h64v-64v-64h-64zM192 64v64v64v64v64v64h-64v-64v-64v-64v-64v-64h64z" />
    <glyph glyph-name="D" unicode="D" 
d="M384 0h-64h-64h-64h-64h-64h-64v64h64v64v64v64v64v64h-64v64h64h64h64h64h64h64h64v-64v-64v-64v-64v-64v-64v-64h-64zM320 64h64v64v64v64v64v64h-64h-64v-64v-64v-64v-64v-64h64zM192 64v64v64v64v64v64h-64v-64v-64v-64v-64v-64h64z" />
    <glyph glyph-name="E" unicode="E" 
d="M384 320v64h-64h-64v-64v-64h64h64v-64h-64h-64v-64v-64h64h64v64h64v-64v-64h-64h-64h-64h-64h-64h-64h-64v64h64v64v64v64v64v64h-64v64h64h64h64h64h64h64h64v-64v-64h-64zM192 64v64v64v64v64v64h-64v-64v-64v-64v-64v-64h64z" />
    <glyph glyph-name="F" unicode="F" 
d="M384 320v64h-64h-64v-64v-64h64h64v-64h-64h-64v-64v-64h64v-64h-64h-64h-64h-64h-64v64h64v64v64v64v64v64h-64v64h64h64h64h64h64h64h64v-64v-64h-64zM192 64v64v64v64v64v64h-64v-64v-64v-64v-64v-64h64z" />
    <glyph glyph-name="G" unicode="G" 
d="M384 320v64h-64h-64v-64v-64v-64v-64v-64h64h64v64v64h-64v64h64h64v-64v-64v-64v-64h-64h-64h-64h-64h-64h-64h-64v64h64v64v64v64v64v64h-64v64h64h64h64h64h64h64h64v-64v-64h-64zM192 64v64v64v64v64v64h-64v-64v-64v-64v-64v-64h64z" />
    <glyph glyph-name="H" unicode="H" 
d="M384 0v64v64v64h-64h-64v-64v-64v-64h-64h-64h-64h-64v64h64v64v64v64v64v64h-64v64h64h64h64h64v-64v-64v-64h64h64v64v64v64h64v-64v-64v-64v-64v-64v-64v-64h-64zM192 64v64v64v64v64v64h-64v-64v-64v-64v-64v-64h64z" />
    <glyph glyph-name="I" unicode="I" horiz-adv-x="384" 
d="M256 0h-64h-64h-64h-64v64h64v64v64v64v64v64h-64v64h64h64h64h64h64v-64h-64v-64v-64v-64v-64v-64h64v-64h-64zM192 64v64v64v64v64v64h-64v-64v-64v-64v-64v-64h64z" />
    <glyph glyph-name="J" unicode="J" horiz-adv-x="448" 
d="M320 0h-64h-64h-64h-64h-64v64v64h64v-64h64v64v64v64v64v64h-64v64h64h64h64h64h64v-64h-64v-64v-64v-64v-64v-64h64v-64h-64zM256 64v64v64v64v64v64h-64v-64v-64v-64v-64v-64h64z" />
    <glyph glyph-name="K" unicode="K" 
d="M384 0v64v64v64h64v-64v-64v-64h-64zM192 0h-64h-64h-64v64h64v64v64v64v64v64h-64v64h64h64h64h64v-64v-64v-64h64h64v-64h-64h-64v-64v-64v-64h-64zM192 64v64v64v64v64v64h-64v-64v-64v-64v-64v-64h64zM384 256v64v64v64h64v-64v-64v-64h-64z" />
    <glyph glyph-name="L" unicode="L" 
d="M384 0h-64h-64h-64h-64h-64h-64v64h64v64v64v64v64v64h-64v64h64h64h64h64h64v-64h-64v-64v-64v-64v-64v-64h64h64v64h64v-64v-64h-64zM192 64v64v64v64v64v64h-64v-64v-64v-64v-64v-64h64z" />
    <glyph glyph-name="M" unicode="M" horiz-adv-x="576" 
d="M448 0v64v64v64v64v64v64h64v-64v-64v-64v-64v-64v-64h-64zM320 0v64v64v64v64v64v64h-64v-64v-64v-64v-64v-64v-64h-64h-64h-64h-64v64h64v64v64v64v64v64h-64v64h64h64h64h64h64h64h64v-64h-64v-64v-64v-64v-64v-64v-64h-64zM192 64v64v64v64v64v64h-64v-64v-64v-64
v-64v-64h64z" />
    <glyph glyph-name="N" unicode="N" 
d="M384 0v64v64v64v64v64v64h64v-64v-64v-64v-64v-64v-64h-64zM192 0h-64h-64h-64v64h64v64v64v64v64v64h-64v64h64h64h64h64h64h64v-64h-64h-64v-64v-64v-64v-64v-64v-64h-64zM192 64v64v64v64v64v64h-64v-64v-64v-64v-64v-64h64z" />
    <glyph glyph-name="O" unicode="O" 
d="M320 64h64v64v64v64v64v64h-64h-64h-64v-64v-64v-64v-64v-64h64h64zM320 0h-64h-64h-64h-64v64h-64v64v64v64v64v64h64v64h64h64h64h64h64v-64h64v-64v-64v-64v-64v-64h-64v-64h-64zM128 64v64v64v64v64v64h-64v-64v-64v-64v-64v-64h64z" />
    <glyph glyph-name="P" unicode="P" 
d="M256 0h-64h-64h-64h-64v64h64v64v64v64v64v64h-64v64h64h64h64h64h64h64h64v-64v-64v-64v-64h-64h-64h-64v-64v-64h64v-64h-64zM192 64v64v64v64v64v64h-64v-64v-64v-64v-64v-64h64zM320 256h64v64v64h-64h-64v-64v-64h64z" />
    <glyph glyph-name="Q" unicode="Q" 
d="M384 0v64h64v-64h-64zM256 64h64v64v64v64v64v64h-64h-64v-64v-64v-64v-64v-64h64zM256 0h-64h-64h-64v64h-64v64v64v64v64v64h64v64h64h64h64h64v-64h64v-64v-64v-64v-64v-64h-64v-64h-64zM128 64v64v64v64v64v64h-64v-64v-64v-64v-64v-64h64z" />
    <glyph glyph-name="R" unicode="R" 
d="M384 0v64v64v64h64v-64v-64v-64h-64zM192 0h-64h-64h-64v64h64v64v64v64v64v64h-64v64h64h64h64h64h64h64h64v-64v-64v-64h-64v64v64h-64h-64v-64v-64h64h64v-64h-64h-64v-64v-64v-64h-64zM192 64v64v64v64v64v64h-64v-64v-64v-64v-64v-64h64z" />
    <glyph glyph-name="S" unicode="S" horiz-adv-x="448" 
d="M320 320v64h-64h-64v-64v-64h64h64h64v-64v-64v-64v-64h-64h-64h-64h-64h-64h-64v64v64h64v-64h64h64v64v64h-64h-64h-64v64v64v64v64h64h64h64h64h64h64v-64v-64h-64zM320 64v64v64h-64v-64v-64h64zM128 256v64v64h-64v-64v-64h64z" />
    <glyph glyph-name="T" unicode="T" 
d="M384 320v64h-64v-64v-64v-64v-64v-64h64v-64h-64h-64h-64h-64h-64v64h64v64v64v64v64v64h-64v-64h-64v64v64h64h64h64h64h64h64h64v-64v-64h-64zM256 64v64v64v64v64v64h-64v-64v-64v-64v-64v-64h64z" />
    <glyph glyph-name="U" unicode="U" horiz-adv-x="448" 
d="M256 64h64v-64h-64h-64h-64h-64h-64v64v64v64v64v64v64v64h64h64h64v-64v-64v-64v-64v-64v-64h64zM320 64v64v64v64v64v64v64h64v-64v-64v-64v-64v-64v-64h-64zM128 64v64v64v64v64v64h-64v-64v-64v-64v-64v-64h64z" />
    <glyph glyph-name="V" unicode="V" horiz-adv-x="448" 
d="M128 0h-64h-64v64v64v64v64v64v64v64h64h64h64v-64v-64v-64v-64v-64h64v-64h-64v-64h-64zM128 64v64v64v64v64v64h-64v-64v-64v-64v-64v-64h64zM256 128v64h64v-64h-64zM320 192v64v64v64v64h64v-64v-64v-64v-64h-64z" />
    <glyph glyph-name="W" unicode="W" 
d="M320 0h-64h-64h-64h-64h-64v64v64v64v64v64v64v64h64h64h64v-64v-64v-64v-64v-64v-64h64v64v64v64v64v64v64h64v-64v-64v-64v-64v-64v-64h64v-64h-64zM384 64v64v64v64v64v64v64h64v-64v-64v-64v-64v-64v-64h-64zM128 64v64v64v64v64v64h-64v-64v-64v-64v-64v-64h64z" />
    <glyph glyph-name="X" unicode="X" 
d="M384 0h-64v64h-64v64h-64v-64h-64v-64h-64h-64v64h64v64h64v64v64v64h-64v64h-64v64h64h64v-64h64v-64h64v64h64v64h64h64v-64h-64v-64h-64v-64v-64v-64h64v-64h64v-64h-64zM256 192v64h-64v-64h64z" />
    <glyph glyph-name="Y" unicode="Y" 
d="M320 0h-64h-64h-64h-64v64h64v64v64v64v64h-64v64h-64v64h64h64v-64h64v-64h64v64h64v64h64h64v-64h-64v-64h-64v-64v-64v-64v-64h64v-64h-64zM256 64v64v64v64h-64v-64v-64v-64h64z" />
    <glyph glyph-name="Z" unicode="Z" 
d="M0 320v64v64h64h64h64h64h64h64h64v-64v-64h-64v64h-64v-64h64v-64h-64v64h-64v-64h64v-64h-64v64h-64v-64h64v-64h-64v64h-64v-64h-64v-64h64v64h64v-64h64h64h64v64h64v-64v-64h-64h-64h-64h-64h-64h-64h-64v64v64h64v64h64v64h64v64h64v64h-64h-64h-64v-64h-64z" />
    <glyph glyph-name="bracketleft" unicode="[" horiz-adv-x="320" 
d="M192 -128h-64h-64v64h-64v64v64v64v64v64v64v64v64v64h64v64h64h64h64v-64h-64v-64v-64v-64v-64v-64v-64v-64v-64v-64h64v-64h-64zM128 -64v64v64v64v64v64v64v64v64v64h-64v-64v-64v-64v-64v-64v-64v-64v-64v-64h64z" />
    <glyph glyph-name="backslash" unicode="\" 
d="M384 0h-64v64v64h64h64v-64v-64h-64zM320 128h-64v64h64v-64zM256 192h-64v64h64v-64zM192 256h-64v64h64v-64zM128 320h-64h-64v64v64h64h64v-64v-64z" />
    <glyph glyph-name="bracketright" unicode="]" horiz-adv-x="320" 
d="M128 -128h-64h-64v64h64v64v64v64v64v64v64v64v64v64h-64v64h64h64h64v-64h64v-64v-64v-64v-64v-64v-64v-64v-64v-64h-64v64v64v64v64v64v64v64v64v64h-64v-64v-64v-64v-64v-64v-64v-64v-64v-64h64v-64h-64z" />
    <glyph glyph-name="asciicircum" unicode="^" horiz-adv-x="384" 
d="M192 256v64h64v-64h-64zM64 256v64h64v-64h-64zM256 320v64h64v-64h-64zM192 320h-64v64h64v-64zM64 320h-64v64h64v-64zM256 384h-64v64h64v-64zM128 384h-64v64h64v-64zM192 448h-64v64h64v-64z" />
    <glyph glyph-name="underscore" unicode="_" 
d="M384 -192h-64h-64h-64h-64h-64h-64v64v64v64h64h64h64h64h64h64h64v-64v-64v-64h-64zM320 -128h64v64h-64h-64h-64h-64h-64v-64h64h64h64h64z" />
    <glyph glyph-name="a" unicode="a" 
d="M384 0v64v64v64h-64h-64v-64v-64v-64h-64h-64h-64h-64v64h64v64v64v64v64v64h-64v64h64h64h64h64h64h64h64v-64v-64v-64v-64v-64v-64v-64h-64zM320 256h64v64v64h-64h-64v-64v-64h64z" />
    <glyph glyph-name="b" unicode="b" 
d="M384 0h-64h-64h-64h-64h-64h-64v64h64v64v64v64v64v64h-64v64h64h64h64h64h64h64h64v-64v-64v-64h-64v64v64h-64h-64v-64v-64h64h64v-64h-64h-64v-64v-64h64h64v64v64h64v-64v-64v-64h-64z" />
    <glyph glyph-name="c" unicode="c" 
d="M384 320v64h-64h-64v-64v-64v-64v-64v-64h64h64v64h64v-64v-64h-64h-64h-64h-64h-64h-64h-64v64h64v64v64v64v64v64h-64v64h64h64h64h64h64h64h64v-64v-64h-64z" />
    <glyph glyph-name="d" unicode="d" 
d="M384 0h-64h-64h-64h-64h-64h-64v64h64v64v64v64v64v64h-64v64h64h64h64h64h64h64h64v-64v-64v-64v-64v-64v-64v-64h-64zM320 64h64v64v64v64v64v64h-64h-64v-64v-64v-64v-64v-64h64z" />
    <glyph glyph-name="e" unicode="e" 
d="M384 320v64h-64h-64v-64v-64h64h64v-64h-64h-64v-64v-64h64h64v64h64v-64v-64h-64h-64h-64h-64h-64h-64h-64v64h64v64v64v64v64v64h-64v64h64h64h64h64h64h64h64v-64v-64h-64z" />
    <glyph glyph-name="f" unicode="f" 
d="M384 320v64h-64h-64v-64v-64h64h64v-64h-64h-64v-64v-64h64v-64h-64h-64h-64h-64h-64v64h64v64v64v64v64v64h-64v64h64h64h64h64h64h64h64v-64v-64h-64z" />
    <glyph glyph-name="g" unicode="g" 
d="M384 320v64h-64h-64v-64v-64v-64v-64v-64h64h64v64v64h-64v64h64h64v-64v-64v-64v-64h-64h-64h-64h-64h-64h-64h-64v64h64v64v64v64v64v64h-64v64h64h64h64h64h64h64h64v-64v-64h-64z" />
    <glyph glyph-name="h" unicode="h" 
d="M384 0v64v64v64h-64h-64v-64v-64v-64h-64h-64h-64h-64v64h64v64v64v64v64v64h-64v64h64h64h64h64v-64v-64v-64h64h64v64v64v64h64v-64v-64v-64v-64v-64v-64v-64h-64z" />
    <glyph glyph-name="i" unicode="i" horiz-adv-x="384" 
d="M256 0h-64h-64h-64h-64v64h64v64v64v64v64v64h-64v64h64h64h64h64h64v-64h-64v-64v-64v-64v-64v-64h64v-64h-64z" />
    <glyph glyph-name="j" unicode="j" horiz-adv-x="448" 
d="M320 0h-64h-64h-64h-64h-64v64v64h64v-64h64v64v64v64v64v64h-64v64h64h64h64h64h64v-64h-64v-64v-64v-64v-64v-64h64v-64h-64z" />
    <glyph glyph-name="k" unicode="k" 
d="M384 0v64v64v64h64v-64v-64v-64h-64zM192 0h-64h-64h-64v64h64v64v64v64v64v64h-64v64h64h64h64h64v-64v-64v-64h64h64v-64h-64h-64v-64v-64v-64h-64zM384 256v64v64v64h64v-64v-64v-64h-64z" />
    <glyph glyph-name="l" unicode="l" 
d="M384 0h-64h-64h-64h-64h-64h-64v64h64v64v64v64v64v64h-64v64h64h64h64h64h64v-64h-64v-64v-64v-64v-64v-64h64h64v64h64v-64v-64h-64z" />
    <glyph glyph-name="m" unicode="m" horiz-adv-x="576" 
d="M448 0v64v64v64v64v64v64h64v-64v-64v-64v-64v-64v-64h-64zM320 0v64v64v64v64v64v64h-64v-64v-64v-64v-64v-64v-64h-64h-64h-64h-64v64h64v64v64v64v64v64h-64v64h64h64h64h64h64h64h64v-64h-64v-64v-64v-64v-64v-64v-64h-64z" />
    <glyph glyph-name="n" unicode="n" 
d="M384 0v64v64v64v64v64v64h64v-64v-64v-64v-64v-64v-64h-64zM192 0h-64h-64h-64v64h64v64v64v64v64v64h-64v64h64h64h64h64h64h64v-64h-64h-64v-64v-64v-64v-64v-64v-64h-64z" />
    <glyph glyph-name="o" unicode="o" 
d="M320 64h64v64v64v64v64v64h-64h-64h-64v-64v-64v-64v-64v-64h64h64zM320 0h-64h-64h-64h-64v64h-64v64v64v64v64v64h64v64h64h64h64h64h64v-64h64v-64v-64v-64v-64v-64h-64v-64h-64z" />
    <glyph glyph-name="p" unicode="p" 
d="M256 0h-64h-64h-64h-64v64h64v64v64v64v64v64h-64v64h64h64h64h64h64h64h64v-64v-64v-64v-64h-64h-64h-64v-64v-64h64v-64h-64zM320 256h64v64v64h-64h-64v-64v-64h64z" />
    <glyph glyph-name="q" unicode="q" 
d="M384 0v64h64v-64h-64zM256 64h64v64v64v64v64v64h-64h-64v-64v-64v-64v-64v-64h64zM256 0h-64h-64h-64v64h-64v64v64v64v64v64h64v64h64h64h64h64v-64h64v-64v-64v-64v-64v-64h-64v-64h-64z" />
    <glyph glyph-name="r" unicode="r" 
d="M384 0v64v64v64h64v-64v-64v-64h-64zM192 0h-64h-64h-64v64h64v64v64v64v64v64h-64v64h64h64h64h64h64h64h64v-64v-64v-64h-64v64v64h-64h-64v-64v-64h64h64v-64h-64h-64v-64v-64v-64h-64z" />
    <glyph glyph-name="s" unicode="s" horiz-adv-x="448" 
d="M320 320v64h-64h-64v-64v-64h64h64h64v-64v-64v-64v-64h-64h-64h-64h-64h-64h-64v64v64h64v-64h64h64v64v64h-64h-64h-64v64v64v64v64h64h64h64h64h64h64v-64v-64h-64z" />
    <glyph glyph-name="t" unicode="t" 
d="M384 320v64h-64v-64v-64v-64v-64v-64h64v-64h-64h-64h-64h-64h-64v64h64v64v64v64v64v64h-64v-64h-64v64v64h64h64h64h64h64h64h64v-64v-64h-64z" />
    <glyph glyph-name="u" unicode="u" horiz-adv-x="448" 
d="M256 64h64v-64h-64h-64h-64h-64h-64v64v64v64v64v64v64v64h64h64h64v-64v-64v-64v-64v-64v-64h64zM320 64v64v64v64v64v64v64h64v-64v-64v-64v-64v-64v-64h-64z" />
    <glyph glyph-name="v" unicode="v" horiz-adv-x="448" 
d="M128 0h-64h-64v64v64v64v64v64v64v64h64h64h64v-64v-64v-64v-64v-64h64v-64h-64v-64h-64zM256 128v64h64v-64h-64zM320 192v64v64v64v64h64v-64v-64v-64v-64h-64z" />
    <glyph glyph-name="w" unicode="w" 
d="M320 0h-64h-64h-64h-64h-64v64v64v64v64v64v64v64h64h64h64v-64v-64v-64v-64v-64v-64h64v64v64v64v64v64v64h64v-64v-64v-64v-64v-64v-64h64v-64h-64zM384 64v64v64v64v64v64v64h64v-64v-64v-64v-64v-64v-64h-64z" />
    <glyph glyph-name="x" unicode="x" 
d="M384 0h-64v64h-64v64h-64v-64h-64v-64h-64h-64v64h64v64h64v64v64v64h-64v64h-64v64h64h64v-64h64v-64h64v64h64v64h64h64v-64h-64v-64h-64v-64v-64v-64h64v-64h64v-64h-64z" />
    <glyph glyph-name="y" unicode="y" 
d="M320 0h-64h-64h-64h-64v64h64v64v64v64v64h-64v64h-64v64h64h64v-64h64v-64h64v64h64v64h64h64v-64h-64v-64h-64v-64v-64v-64v-64h64v-64h-64z" />
    <glyph glyph-name="z" unicode="z" 
d="M0 320v64v64h64h64h64h64h64h64h64v-64v-64h-64v-64h-64v-64h-64v-64h-64v-64h64h64h64v64h64v-64v-64h-64h-64h-64h-64h-64h-64h-64v64v64h64v64h64v64h64v64h64v64h-64h-64h-64v-64h-64z" />
    <glyph glyph-name="braceleft" unicode="{" horiz-adv-x="384" 
d="M192 -128v64h-64v64h64v64h64v-64v-64v-64h-64zM128 0h-64v64h64v-64zM256 64v64h64v-64h-64zM192 64h-64v64h64v-64zM256 128h-64v64h64v-64zM128 128h-64v64h64v-64zM192 192h-64v64h64v-64zM64 192h-64v64h64v-64zM192 256v64h64v-64h-64zM128 256h-64v64h64v-64z
M256 320v64h64v-64h-64zM192 320h-64v64h64v-64zM256 384h-64v64h-64v-64h-64v64h64v64h64v64h64v-64v-64v-64z" />
    <glyph glyph-name="bar" unicode="|" horiz-adv-x="256" 
d="M128 0h-64h-64v64v64h64v64v64v64h-64v64v64h64h64h64v-64v-64h-64v-64v-64v-64h64v-64v-64h-64z" />
    <glyph glyph-name="braceright" unicode="}" horiz-adv-x="384" 
d="M64 -128v64v64v64h64v-64h64v-64h-64v-64h-64zM192 0v64h64v-64h-64zM192 64h-64v64h64v-64zM64 64h-64v64h64v-64zM192 128v64h64v-64h-64zM128 128h-64v64h64v-64zM256 192v64h64v-64h-64zM192 192h-64v64h64v-64zM256 256h-64v64h64v-64zM128 256h-64v64h64v-64z
M192 320h-64v64h64v-64zM64 320h-64v64h64v-64zM192 384v64h64v-64h-64zM128 384h-64v64v64v64h64v-64h64v-64h-64v-64z" />
    <glyph glyph-name="asciitilde" unicode="~" horiz-adv-x="448" 
d="M0 128v64v64v64h64h64h64v-64h64v-64h64v64h64v-64v-64v-64h-64h-64h-64v64h-64v64h-64v-64h-64z" />
    <glyph glyph-name="uni00A0" unicode="&#xa0;" horiz-adv-x="320" 
 />
  </font>
</defs>
</svg>
